<svg version="1.2" xmlns="http://www.w3.org/2000/svg" viewBox="0 0 960 300" width="960" height="300">
	<style>
		.s0 { fill: none;stroke: #d87656;stroke-linecap: round;stroke-linejoin: round;stroke-width: 6.8 } 
		.s1 { fill: #d87656 } 
	</style>
	<g id="Folder 1">
		<g>
			<path class="s0" d="m429 68.65v11.32m16.99-28.31v45.31m16.99-33.99v22.66m16.99-39.65v56.64m17-73.63v90.62m16.99-62.3v33.98m16.99-22.65v11.32"/>
			<path id=" ███╗   ███╗  █████╗  ███████╗ █" class="s1" aria-label=" ███╗   ███╗  █████╗  ███████╗ ███████╗ ████████╗ ██████╗   ██████╗ 
 ████╗ ████║ ██╔══██╗ ██╔════╝ ██╔════╝ ╚══██╔══╝ ██╔══██╗ ██╔═══██╗
 ██╔████╔██║ ███████║ █████╗   ███████╗    ██║    ██████╔╝ ██║   ██║
 ██║╚██╔╝██║ ██╔══██║ ██╔══╝   ╚════██║    ██║    ██╔══██╗ ██║   ██║
 ██║ ╚═╝ ██║ ██║  ██║ ███████╗ ███████║    ██║    ██║  ██║ ╚██████╔╝
 ╚═╝     ╚═╝ ╚═╝  ╚═╝ ╚══════╝ ╚══════╝    ╚═╝    ╚═╝  ╚═╝  ╚═════╝ "  d="m134.8 170.2h-10.8v-25.2h10.8zm11 0h-10.8v-25.2h10.8zm10 0h-10.8v-25.1h10.8zm4.1 0h-2.2v-8.9h-3.4v-2.2h5.6zm5.2 0h-2.2v-14.1h-8.6v-2.2h10.8zm44.7 0h-10.8v-25.2h10.8zm11 0h-10.8v-25.1h10.8zm11 0h-10.8v-25.2h10.8zm4.1 0h-2.2v-8.9h-3.4v-2.2h5.6zm5.2 0h-2.2v-14.1h-8.6v-2.2h10.8zm33.7 0h-10.8v-25.2h10.8zm11 0h-10.8v-25.1h10.8zm11 0h-10.8v-25.2h10.8zm10 0h-10.8v-25.2h10.8zm11 0h-10.8v-25.1h10.8zm4.1 0h-2.2v-8.9h-3.4v-2.2h5.6zm5.2 0h-2.2v-14.1h-8.6v-2.2h10.8zm33.7 0h-10.8v-25.2h10.8zm11 0h-10.8v-25.2h10.8zm11 0h-10.8v-25.1h10.8zm11 0h-10.8v-25.2h10.8zm10 0h-10.8v-25.2h10.8zm11 0h-10.8v-25.1h10.8zm11 0h-10.8v-25.2h10.8zm4.1 0h-2.2v-8.9h-3.4v-2.2h5.6zm5.2 0h-2.2v-14.1h-8.6v-2.2h10.8zm22.7 0h-10.8v-25.2h10.8zm11 0h-10.8v-25.1h10.8zm11 0h-10.8v-25.2h10.8zm11 0h-10.8v-25.2h10.8zm11 0h-10.8v-25.1h10.8zm10 0h-10.8v-25.2h10.8zm11 0h-10.8v-25.2h10.8zm4.1 0h-2.2v-8.9h-3.4v-2.2h5.6zm5.2 0h-2.2v-14.1h-8.6v-2.2h10.8zm23.7 0h-10.8v-25.1h10.8zm10 0h-10.8v-25.2h10.8zm11 0h-10.8v-25.2h10.8zm11 0h-10.8v-25.1h10.8zm11 0h-10.8v-25.2h10.8zm10 0h-10.8v-25.2h10.8zm11 0h-10.8v-25.2h10.8zm11 0h-10.8v-25.1h10.8zm4.1 0h-2.2v-8.9h-3.4v-2.2h5.6zm5.2 0h-2.2v-14.1h-8.6v-2.2h10.8zm22.7 0h-10.8v-25.2h10.8zm11 0h-10.8v-25.1h10.8zm11 0h-10.8v-25.2h10.8zm11 0h-10.8v-25.2h10.8zm11 0h-10.8v-25.2h10.8zm10 0h-10.8v-25.1h10.8zm4.1 0h-2.2v-8.9h-3.4v-2.2h5.6zm5.2 0h-2.2v-14.1h-8.6v-2.2h10.8zm44.7 0h-10.8v-25.2h10.8zm11 0h-10.8v-25.1h10.8zm11 0h-10.8v-25.2h10.8zm11 0h-10.8v-25.2h10.8zm10 0h-10.8v-25.2h10.8zm11 0h-10.8v-25.1h10.8zm4.1 0h-2.2v-8.9h-3.4v-2.2h5.6zm5.2 0h-2.2v-14.1h-8.6v-2.2h10.8zm-699.3 21h-10.8v-25.2h10.8zm11 0h-10.8v-25.1h10.8zm10 0h-10.8v-25.2h10.8zm11 0h-10.8v-25.2h10.8zm4.1 0h-2.2v-8.9h-3.4v-2.2h5.6zm5.2 0h-2.2v-14.1h-8.6v-2.2h10.8zm23.7 0h-10.8v-25.1h10.8zm10 0h-10.8v-25.2h10.8zm11 0h-10.8v-25.2h10.8zm11 0h-10.8v-25.1h10.8zm4.1 0h-2.2v-25.2h2.2zm5.2 0h-2.2v-25.2h2.2zm22.7 0h-10.8v-25.2h10.8zm11 0h-10.8v-25.1h10.8zm4.1 0h-2.2v-16.3h10.8v2.2h-8.6zm5.2 0h-2.2v-11.1h5.6v2.2h-3.4zm14.4-8.9h-14.2v-2.2h14.2zm0-5.2h-14.2v-2.2h14.2zm10 5.2h-14.2v-2.2h14.2zm0-5.2h-14.2v-2.2h14.2zm9.3 14.1h-10.8v-25.2h10.8zm11 0h-10.8v-25.1h10.8zm4.1 0h-2.2v-8.9h-3.4v-2.2h5.6zm5.2 0h-2.2v-14.1h-8.6v-2.2h10.8zm22.7 0h-10.8v-25.2h10.8zm11 0h-10.8v-25.2h10.8zm4.1 0h-2.2v-16.2h10.8v2.2h-8.6zm5.2 0h-2.2v-11.1h5.6v2.2h-3.4zm14.4-8.9h-14.2v-2.2h14.2zm0-5.2h-14.2v-2.2h14.2zm10 5.2h-14.2v-2.2h14.2zm0-5.2h-14.2v-2.2h14.2zm11 5.2h-14.2v-2.2h14.2zm0-5.2h-14.2v-2.2h14.2zm11 5.2h-14.2v-2.2h14.2zm0-5.2h-14.2v-2.2h14.2zm7.6 5.2h-10.8v-2.2h8.6v-14.1h2.2zm-5.2-5.2h-5.6v-2.2h3.4v-8.9h2.2zm27.9 14.1h-10.8v-25.2h10.8zm11 0h-10.8v-25.2h10.8zm4.1 0h-2.2v-16.2h10.8v2.2h-8.6zm5.2 0h-2.2v-11.1h5.6v2.2h-3.4zm14.4-8.9h-14.2v-2.2h14.2zm0-5.2h-14.2v-2.2h14.2zm11 5.2h-14.2v-2.2h14.2zm0-5.2h-14.2v-2.2h14.2zm10 5.2h-14.2v-2.2h14.2zm0-5.2h-14.2v-2.2h14.2zm11 5.2h-14.2v-2.2h14.2zm0-5.2h-14.2v-2.2h14.2zm7.6 5.2h-10.8v-2.2h8.6v-14.1h2.2zm-5.2-5.2h-5.6v-2.2h3.4v-8.9h2.2zm30.6 5.2h-10.8v-16.3h2.2v14.1h8.6zm0-5.2h-5.6v-11.1h2.2v8.9h3.4zm10 5.2h-14.2v-2.2h14.2zm0-5.2h-14.2v-2.2h14.2zm11 5.2h-14.2v-2.2h14.2zm0-5.2h-14.2v-2.2h14.2zm9.3 14.1h-10.8v-25.2h10.8zm11 0h-10.8v-25.1h10.8zm3.1 0h-2.2v-16.3h10.8v2.2h-8.6zm5.2 0h-2.2v-11.1h5.6v2.2h-3.4zm14.4-8.9h-14.2v-2.2h14.2zm0-5.2h-14.2v-2.2h14.2zm11 5.2h-14.2v-2.2h14.2zm0-5.2h-14.2v-2.2h14.2zm7.6 5.2h-10.8v-2.2h8.6v-14.1h2.2zm-5.2-5.2h-5.6v-2.2h3.4v-8.9h2.2zm27.9 14.1h-10.8v-25.2h10.8zm11 0h-10.8v-25.1h10.8zm4.1 0h-2.2v-16.3h10.8v2.2h-8.6zm5.2 0h-2.2v-11.1h5.6v2.2h-3.4zm14.4-8.9h-14.2v-2.2h14.2zm0-5.2h-14.2v-2.2h14.2zm11 5.2h-14.2v-2.2h14.2zm0-5.2h-14.2v-2.2h14.2zm8.3 14.1h-10.8v-25.2h10.8zm11 0h-10.8v-25.2h10.8zm4.1 0h-2.2v-8.8h-3.4v-2.2h5.6zm5.2 0h-2.2v-14.1h-8.6v-2.2h10.8zm22.7 0h-10.8v-25.2h10.8zm11 0h-10.8v-25.2h10.8zm4.1 0h-2.2v-16.2h10.8v2.2h-8.6zm5.2 0h-2.2v-11.1h5.6v2.2h-3.4zm14.4-8.9h-14.2v-2.2h14.2zm0-5.2h-14.2v-2.2h14.2zm11 5.2h-14.2v-2.2h14.2zm0-5.2h-14.2v-2.2h14.2zm10 5.2h-14.2v-2.2h14.2zm0-5.2h-14.2v-2.2h14.2zm9.3 14.1h-10.8v-25.2h10.8zm11 0h-10.8v-25.2h10.8zm4.1 0h-2.2v-8.9h-3.4v-2.2h5.6zm5.2 0h-2.2v-14.1h-8.6v-2.2h10.8zm-710.3 22h-10.8v-25.1h10.8zm11 0h-10.8v-25.2h10.8zm3.1 0h-2.2v-16.3h10.8v2.2h-8.6zm5.2 0h-2.2v-11.1h5.6v2.2h-3.4zm12.7 0h-10.8v-25.1h10.8zm11 0h-10.8v-25.2h10.8zm11 0h-10.8v-25.2h10.8zm11 0h-10.8v-25.2h10.8zm3.1 0h-2.2v-16.2h10.8v2.2h-8.6zm5.2 0h-2.2v-11.1h5.6v2.2h-3.4zm12.7 0h-10.8v-25.2h10.8zm11 0h-10.8v-25.2h10.8zm4.1 0h-2.2v-25.1h2.2zm5.2 0h-2.2v-25.2h2.2zm22.7 0h-10.8v-25.2h10.8zm11 0h-10.8v-25.2h10.8zm11 0h-10.8v-25.1h10.8zm11 0h-10.8v-25.2h10.8zm10 0h-10.8v-25.2h10.8zm11 0h-10.8v-25.1h10.8zm11 0h-10.8v-25.2h10.8zm4.1 0h-2.2v-25.2h2.2zm5.2 0h-2.2v-25.2h2.2zm22.7 0h-10.8v-25.1h10.8zm11 0h-10.8v-25.2h10.8zm11 0h-10.8v-25.2h10.8zm11 0h-10.8v-25.1h10.8zm10 0h-10.8v-25.2h10.8zm4.1 0h-2.2v-8.9h-3.4v-2.2h5.6zm5.2 0h-2.2v-14.1h-8.6v-2.2h10.8zm44.7 0h-10.8v-25.2h10.8zm11 0h-10.8v-25.1h10.8zm11 0h-10.8v-25.2h10.8zm11 0h-10.8v-25.2h10.8zm11 0h-10.8v-25.1h10.8zm10 0h-10.8v-25.2h10.8zm11 0h-10.8v-25.2h10.8zm4.1 0h-2.2v-8.9h-3.4v-2.2h5.6zm5.2 0h-2.2v-14.1h-8.6v-2.2h10.8zm55.7 0h-10.8v-25.1h10.8zm11 0h-10.8v-25.2h10.8zm3.1 0h-2.2v-25.2h2.2zm5.2 0h-2.2v-25.1h2.2zm55.7 0h-10.8v-25.2h10.8zm11 0h-10.8v-25.2h10.8zm11 0h-10.8v-25.2h10.8zm11 0h-10.8v-25.1h10.8zm11 0h-10.8v-25.2h10.8zm10 0h-10.8v-25.2h10.8zm4.1 0h-2.2v-16.2h10.8v2.2h-8.6zm5.2 0h-2.2v-11.1h5.6v2.2h-3.4zm11-8.9h-10.8v-2.2h8.6v-14.1h2.2zm-5.2-5.2h-5.6v-2.2h3.4v-8.9h2.2zm27.9 14.1h-10.8v-25.2h10.8zm11 0h-10.8v-25.2h10.8zm4.1 0h-2.2v-25.1h2.2zm5.2 0h-2.2v-25.2h2.2zm44.7 0h-10.8v-25.2h10.8zm11 0h-10.8v-25.1h10.8zm4.1 0h-2.2v-25.2h2.2zm5.2 0h-2.2v-25.2h2.2zm-710.3 21h-10.8v-25.2h10.8zm11 0h-10.8v-25.1h10.8zm3.1 0h-2.2v-25.2h2.2zm5.2 0h-2.2v-25.2h2.2zm14.4-8.9h-10.8v-16.2h2.2v14h8.6zm0-5.1h-5.6v-11.1h2.2v8.9h3.4zm9.3 14h-10.8v-25.1h10.8zm11 0h-10.8v-25.2h10.8zm4.1 0h-2.2v-16.3h10.8v2.2h-8.6zm5.2 0h-2.2v-11.1h5.6v2.2h-3.4zm10-8.9h-10.8v-2.2h8.6v-14.1h2.2zm-5.2-5.1h-5.6v-2.2h3.4v-8.9h2.2zm17.9 14h-10.8v-25.1h10.8zm11 0h-10.8v-25.2h10.8zm4.1 0h-2.2v-25.2h2.2zm5.2 0h-2.2v-25.1h2.2zm22.7 0h-10.8v-25.2h10.8zm11 0h-10.8v-25.2h10.8zm4.1 0h-2.2v-16.3h10.8v2.2h-8.6zm5.2 0h-2.2v-11.1h5.6v2.2h-3.4zm14.4-8.9h-14.2v-2.2h14.2zm0-5.1h-14.2v-2.2h14.2zm10 5.1h-14.2v-2.2h14.2zm0-5.1h-14.2v-2.2h14.2zm9.3 14h-10.8v-25.1h10.8zm11 0h-10.8v-25.2h10.8zm4.1 0h-2.2v-25.2h2.2zm5.2 0h-2.2v-25.1h2.2zm22.7 0h-10.8v-25.2h10.8zm11 0h-10.8v-25.2h10.8zm4.1 0h-2.2v-16.3h10.8v2.2h-8.6zm5.2 0h-2.2v-11.1h5.6v2.2h-3.4zm14.4-8.9h-14.2v-2.2h14.2zm0-5.1h-14.2v-2.2h14.2zm10 5.1h-14.2v-2.2h14.2zm0-5.1h-14.2v-2.2h14.2zm7.6 5.1h-10.8v-2.2h8.6v-14h2.2zm-5.2-5.2h-5.6v-2.2h3.4v-8.9h2.2zm51.6 5.2h-10.8v-16.3h2.2v14.1h8.6zm0-5.2h-5.6v-11.1h2.2v8.9h3.4zm11 5.2h-14.2v-2.2h14.2zm0-5.2h-14.2v-2.2h14.2zm11 5.2h-14.2v-2.2h14.2zm0-5.2h-14.2v-2.2h14.2zm11 5.2h-14.2v-2.2h14.2zm0-5.2h-14.2v-2.2h14.2zm11 5.2h-14.2v-2.2h14.2zm0-5.2h-14.2v-2.2h14.2zm8.3 14.1h-10.8v-25.2h10.8zm11 0h-10.8v-25.2h10.8zm4.1 0h-2.2v-25.2h2.2zm5.2 0h-2.2v-25.1h2.2zm55.7 0h-10.8v-25.2h10.8zm11 0h-10.8v-25.2h10.8zm3.1 0h-2.2v-25.1h2.2zm5.2 0h-2.2v-25.2h2.2zm55.7 0h-10.8v-25.2h10.8zm11 0h-10.8v-25.2h10.8zm4.1 0h-2.2v-16.2h10.8v2.2h-8.6zm5.2 0h-2.2v-11.1h5.6v2.2h-3.4zm14.4-8.9h-14.2v-2.2h14.2zm0-5.2h-14.2v-2.2h14.2zm11 5.2h-14.2v-2.2h14.2zm0-5.2h-14.2v-2.2h14.2zm8.3 14.1h-10.8v-25.2h10.8zm11 0h-10.8v-25.2h10.8zm4.1 0h-2.2v-8.9h-3.4v-2.2h5.6zm5.2 0h-2.2v-14h-8.6v-2.2h10.8zm22.7 0h-10.8v-25.2h10.8zm11 0h-10.8v-25.2h10.8zm4.1 0h-2.2v-25.2h2.2zm5.2 0h-2.2v-25.1h2.2zm44.7 0h-10.8v-25.2h10.8zm11 0h-10.8v-25.2h10.8zm4.1 0h-2.2v-25.1h2.2zm5.2 0h-2.2v-25.2h2.2zm-710.3 22h-10.8v-25.2h10.8zm11 0h-10.8v-25.2h10.8zm3.1 0h-2.2v-25.1h2.2zm5.2 0h-2.2v-25.2h2.2zm25.4-8.9h-10.8v-16.3h2.2v14.1h8.6zm0-5.2h-5.6v-11.1h2.2v8.9h3.4zm11 5.2h-14.2v-2.2h14.2zm0-5.2h-14.2v-2.2h14.2zm7.6 5.2h-10.8v-2.2h8.6v-14.1h2.2zm-5.2-5.2h-5.6v-2.2h3.4v-8.8h2.2zm27.9 14h-10.8v-25.1h10.8zm11 0h-10.8v-25.2h10.8zm4.1 0h-2.2v-25.2h2.2zm5.2 0h-2.2v-25.2h2.2zm22.7 0h-10.8v-25.1h10.8zm11 0h-10.8v-25.2h10.8zm4.1 0h-2.2v-25.2h2.2zm5.2 0h-2.2v-25.1h2.2zm33.7 0h-10.8v-25.2h10.8zm11 0h-10.8v-25.2h10.8zm4.1 0h-2.2v-25.2h2.2zm5.2 0h-2.2v-25.1h2.2zm22.7 0h-10.8v-25.2h10.8zm11 0h-10.8v-25.2h10.8zm11 0h-10.8v-25.1h10.8zm11 0h-10.8v-25.2h10.8zm10 0h-10.8v-25.2h10.8zm11 0h-10.8v-25.2h10.8zm11 0h-10.8v-25.1h10.8zm4.1 0h-2.2v-8.9h-3.4v-2.2h5.6zm5.2 0h-2.2v-14.1h-8.6v-2.2h10.8zm22.7 0h-10.8v-25.2h10.8zm11 0h-10.8v-25.1h10.8zm11 0h-10.8v-25.2h10.8zm11 0h-10.8v-25.2h10.8zm11 0h-10.8v-25.2h10.8zm10 0h-10.8v-25.1h10.8zm11 0h-10.8v-25.2h10.8zm4.1 0h-2.2v-25.2h2.2zm5.2 0h-2.2v-25.1h2.2zm55.7 0h-10.8v-25.2h10.8zm11 0h-10.8v-25.2h10.8zm3.1 0h-2.2v-25.2h2.2zm5.2 0h-2.2v-25.1h2.2zm55.7 0h-10.8v-25.2h10.8zm11 0h-10.8v-25.2h10.8zm4.1 0h-2.2v-25.1h2.2zm5.2 0h-2.2v-25.2h2.2zm33.7 0h-10.8v-25.2h10.8zm11 0h-10.8v-25.2h10.8zm4.1 0h-2.2v-25.1h2.2zm5.2 0h-2.2v-25.2h2.2zm24.4-8.9h-10.8v-16.3h2.2v14.1h8.6zm0-5.2h-5.6v-11.1h2.2v8.9h3.4zm9.3 14.1h-10.8v-25.2h10.8zm11 0h-10.8v-25.1h10.8zm11 0h-10.8v-25.2h10.8zm11 0h-10.8v-25.2h10.8zm10 0h-10.8v-25.2h10.8zm11 0h-10.8v-25.1h10.8zm4.1 0h-2.2v-16.3h10.8v2.2h-8.6zm5.2 0h-2.2v-11.1h5.6v2.2h-3.4zm11-8.9h-10.8v-2.2h8.6v-14.1h2.2zm-5.2-5.2h-5.6v-2.2h3.4v-8.9h2.2zm-703.4 26.2h-10.8v-16.2h2.2v14h8.6zm0-5.2h-5.6v-11h2.2v8.8h3.4zm11 5.2h-14.2v-2.2h14.2zm0-5.2h-14.2v-2.2h14.2zm6.6 5.2h-10.8v-2.2h8.6v-14.1h2.2zm-5.2-5.1h-5.6v-2.2h3.4v-8.9h2.2zm73.6 5.2h-10.8v-16.3h2.2v14.1h8.6zm0-5.2h-5.6v-11.1h2.2v8.9h3.4zm11 5.2h-14.2v-2.3h14.2zm0-5.1h-14.2v-2.2h14.2zm7.6 5.1h-10.8v-2.2h8.6v-14h2.2zm-5.2-5.2h-5.6v-2.2h3.4v-8.9h2.2zm29.6 5.2h-10.8v-16.3h2.2v14.1h8.6zm0-5.2h-5.6v-11.1h2.2v8.9h3.4zm11 5.2h-14.2v-2.2h14.2zm0-5.2h-14.2v-2.2h14.2zm7.6 5.2h-10.8v-2.2h8.6v-14.1h2.2zm-5.2-5.2h-5.6v-2.2h3.4v-8.9h2.2zm40.6 5.2h-10.8v-16.3h2.2v14.1h8.6zm0-5.2h-5.6v-11.1h2.2v8.9h3.4zm11 5.2h-14.2v-2.2h14.2zm0-5.2h-14.2v-2.2h14.2zm7.6 5.2h-10.8v-2.2h8.6v-14.1h2.2zm-5.2-5.2h-5.6v-2.2h3.4v-8.9h2.2zm29.6 5.2h-10.8v-16.2h2.2v14h8.6zm0-5.2h-5.6v-11h2.2v8.8h3.4zm11 5.2h-14.2v-2.2h14.2zm0-5.2h-14.2v-2.2h14.2zm11 5.2h-14.2v-2.2h14.2zm0-5.2h-14.2v-2.2h14.2zm11 5.2h-14.2v-2.2h14.2zm0-5.2h-14.2v-2.2h14.2zm10 5.2h-14.2v-2.2h14.2zm0-5.2h-14.2v-2.2h14.2zm11 5.2h-14.2v-2.2h14.2zm0-5.2h-14.2v-2.2h14.2zm11 5.2h-14.2v-2.2h14.2zm0-5.2h-14.2v-2.2h14.2zm7.6 5.2h-10.8v-2.2h8.6v-14.1h2.2zm-5.2-5.1h-5.6v-2.2h3.4v-8.9h2.2zm29.6 5.1h-10.8v-16.2h2.2v14h8.6zm0-5.1h-5.6v-11.1h2.2v8.9h3.4zm11 5.1h-14.2v-2.2h14.2zm0-5.1h-14.2v-2.2h14.2zm11 5.1h-14.2v-2.2h14.2zm0-5.1h-14.2v-2.2h14.2zm11 5.1h-14.2v-2.2h14.2zm0-5.1h-14.2v-2.2h14.2zm11 5.1h-14.2v-2.2h14.2zm0-5.1h-14.2v-2.2h14.2zm10 5.1h-14.2v-2.2h14.2zm0-5.1h-14.2v-2.2h14.2zm11 5.1h-14.2v-2.2h14.2zm0-5.1h-14.2v-2.2h14.2zm7.6 5.1h-10.8v-2.2h8.6v-14h2.2zm-5.2-5.2h-5.6v-2.2h3.4v-8.9h2.2zm62.6 5.2h-10.8v-16.3h2.2v14.1h8.6zm0-5.2h-5.6v-11.1h2.2v8.9h3.4zm11 5.2h-14.2v-2.2h14.2zm0-5.2h-14.2v-2.2h14.2zm6.6 5.2h-10.8v-2.2h8.6v-14.1h2.2zm-5.2-5.2h-5.6v-2.2h3.4v-8.9h2.2zm62.6 5.2h-10.8v-16.3h2.2v14.1h8.6zm0-5.2h-5.6v-11.1h2.2v8.9h3.4zm11 5.2h-14.2v-2.2h14.2zm0-5.2h-14.2v-2.2h14.2zm7.6 5.2h-10.8v-2.2h8.6v-14.1h2.2zm-5.2-5.2h-5.6v-2.2h3.4v-8.9h2.2zm40.6 5.2h-10.8v-16.3h2.2v14.1h8.6zm0-5.2h-5.6v-11.1h2.2v8.9h3.4zm11 5.2h-14.2v-2.2h14.2zm0-5.2h-14.2v-2.2h14.2zm7.6 5.2h-10.8v-2.2h8.6v-14.1h2.2zm-5.2-5.1h-5.6v-2.2h3.4v-8.9h2.2zm40.6 5.1h-10.8v-16.2h2.2v14h8.6zm0-5.1h-5.6v-11.1h2.2v8.9h3.4zm11 5.1h-14.2v-2.2h14.2zm0-5.1h-14.2v-2.2h14.2zm11 5.1h-14.2v-2.2h14.2zm0-5.1h-14.2v-2.2h14.2zm11 5.1h-14.2v-2.2h14.2zm0-5.1h-14.2v-2.2h14.2zm10 5.1h-14.2v-2.2h14.2zm0-5.1h-14.2v-2.2h14.2zm11 5.1h-14.2v-2.2h14.2zm0-5.1h-14.2v-2.2h14.2zm7.6 5.1h-10.8v-2.2h8.6v-14h2.2zm-5.2-5.2h-5.6v-2.2h3.4v-8.9h2.2z"/>
		</g>
	</g>
</svg>